<mxfile host="app.diagrams.net" modified="2023-12-08T06:14:37.343Z" agent="Mozilla/5.0 (Windows NT 10.0; Win64; x64) AppleWebKit/537.36 (KHTML, like Gecko) Chrome/119.0.0.0 Safari/537.36 Edg/119.0.0.0" etag="cTCfvj4R6ym1PjtnBDv0" version="22.1.7" type="github">
  <diagram id="prtHgNgQTEPvFCAcTncT" name="Page-1">
    <mxGraphModel dx="1386" dy="759" grid="1" gridSize="10" guides="1" tooltips="1" connect="1" arrows="1" fold="1" page="1" pageScale="1" pageWidth="827" pageHeight="1169" math="0" shadow="0">
      <root>
        <mxCell id="0" />
        <mxCell id="1" parent="0" />
        <mxCell id="zJI1jAjEfBXhcPS7CYOm-27" value="&lt;font style=&quot;font-size: 24px;&quot;&gt;&lt;br&gt;&lt;br&gt;&lt;br&gt;&lt;br&gt;&lt;br&gt;&lt;br&gt;&lt;br&gt;&lt;br&gt;&lt;br&gt;&lt;br&gt;&lt;br&gt;Scheduler&lt;/font&gt;" style="rounded=1;whiteSpace=wrap;html=1;fillColor=#dae8fc;strokeColor=#6c8ebf;" vertex="1" parent="1">
          <mxGeometry x="700" y="1780" width="510" height="380" as="geometry" />
        </mxCell>
        <mxCell id="1sImL0ctUOMiwHgFj7wP-133" value="" style="rounded=0;whiteSpace=wrap;html=1;" parent="1" vertex="1">
          <mxGeometry x="718" y="1000" width="700" height="580" as="geometry" />
        </mxCell>
        <mxCell id="1sImL0ctUOMiwHgFj7wP-213" value="&lt;div style=&quot;text-align: left;&quot;&gt;&lt;br&gt;&lt;/div&gt;" style="rounded=1;whiteSpace=wrap;html=1;" parent="1" vertex="1">
          <mxGeometry x="933" y="1034" width="200" height="296" as="geometry" />
        </mxCell>
        <mxCell id="ZTOga47MwnahWuLCltIo-83" value="api-server" style="rounded=1;whiteSpace=wrap;html=1;" parent="1" vertex="1">
          <mxGeometry x="410" y="945" width="210" height="40" as="geometry" />
        </mxCell>
        <mxCell id="ZTOga47MwnahWuLCltIo-84" value="control manger" style="rounded=1;whiteSpace=wrap;html=1;" parent="1" vertex="1">
          <mxGeometry x="280" y="1025" width="90" height="40" as="geometry" />
        </mxCell>
        <mxCell id="ZTOga47MwnahWuLCltIo-85" value="&lt;font style=&quot;font-size: 14px;&quot;&gt;&amp;nbsp; &amp;nbsp; Schedule&lt;/font&gt;" style="rounded=1;whiteSpace=wrap;html=1;align=left;" parent="1" vertex="1">
          <mxGeometry x="430" y="1025" width="200" height="60" as="geometry" />
        </mxCell>
        <mxCell id="ZTOga47MwnahWuLCltIo-86" value="gpu-admission&lt;br&gt;schedule" style="rounded=1;whiteSpace=wrap;html=1;fillColor=#CCCCFF;" parent="1" vertex="1">
          <mxGeometry x="530" y="1035" width="90" height="40" as="geometry" />
        </mxCell>
        <mxCell id="ZTOga47MwnahWuLCltIo-87" value="etcd" style="shape=cylinder3;whiteSpace=wrap;html=1;boundedLbl=1;backgroundOutline=1;size=15;" parent="1" vertex="1">
          <mxGeometry x="280" y="935" width="100" height="50" as="geometry" />
        </mxCell>
        <mxCell id="ZTOga47MwnahWuLCltIo-89" value="&lt;font style=&quot;font-size: 18px;&quot;&gt;Master Node&lt;/font&gt;" style="text;html=1;strokeColor=none;fillColor=none;align=center;verticalAlign=middle;whiteSpace=wrap;rounded=0;" parent="1" vertex="1">
          <mxGeometry x="395" y="890" width="110" height="30" as="geometry" />
        </mxCell>
        <mxCell id="ZTOga47MwnahWuLCltIo-102" value="" style="endArrow=classic;html=1;rounded=0;exitX=0.75;exitY=0;exitDx=0;exitDy=0;" parent="1" source="ZTOga47MwnahWuLCltIo-84" edge="1">
          <mxGeometry width="50" height="50" relative="1" as="geometry">
            <mxPoint x="350" y="1020" as="sourcePoint" />
            <mxPoint x="410" y="970" as="targetPoint" />
          </mxGeometry>
        </mxCell>
        <mxCell id="ZTOga47MwnahWuLCltIo-103" value="" style="endArrow=classic;html=1;rounded=0;entryX=0.04;entryY=1.026;entryDx=0;entryDy=0;entryPerimeter=0;exitX=0.398;exitY=-0.046;exitDx=0;exitDy=0;exitPerimeter=0;" parent="1" target="ZTOga47MwnahWuLCltIo-83" edge="1">
          <mxGeometry width="50" height="50" relative="1" as="geometry">
            <mxPoint x="419.29999999999995" y="1093.62" as="sourcePoint" />
            <mxPoint x="430" y="1000" as="targetPoint" />
          </mxGeometry>
        </mxCell>
        <mxCell id="ZTOga47MwnahWuLCltIo-104" value="" style="endArrow=classic;html=1;rounded=0;exitX=0.429;exitY=0.006;exitDx=0;exitDy=0;exitPerimeter=0;entryX=0.5;entryY=1;entryDx=0;entryDy=0;" parent="1" source="ZTOga47MwnahWuLCltIo-85" target="ZTOga47MwnahWuLCltIo-83" edge="1">
          <mxGeometry width="50" height="50" relative="1" as="geometry">
            <mxPoint x="429" y="1104" as="sourcePoint" />
            <mxPoint x="428" y="996" as="targetPoint" />
          </mxGeometry>
        </mxCell>
        <mxCell id="1sImL0ctUOMiwHgFj7wP-2" value="" style="rounded=0;whiteSpace=wrap;html=1;" parent="1" vertex="1">
          <mxGeometry x="260" y="920" width="380" height="180" as="geometry" />
        </mxCell>
        <mxCell id="1sImL0ctUOMiwHgFj7wP-218" style="edgeStyle=orthogonalEdgeStyle;rounded=0;orthogonalLoop=1;jettySize=auto;html=1;entryX=0;entryY=0.5;entryDx=0;entryDy=0;" parent="1" source="1sImL0ctUOMiwHgFj7wP-3" target="1sImL0ctUOMiwHgFj7wP-94" edge="1">
          <mxGeometry relative="1" as="geometry" />
        </mxCell>
        <mxCell id="1sImL0ctUOMiwHgFj7wP-3" value="api-server" style="rounded=1;whiteSpace=wrap;html=1;" parent="1" vertex="1">
          <mxGeometry x="410" y="945" width="210" height="40" as="geometry" />
        </mxCell>
        <mxCell id="1sImL0ctUOMiwHgFj7wP-4" value="control manger" style="rounded=1;whiteSpace=wrap;html=1;" parent="1" vertex="1">
          <mxGeometry x="280" y="1035.5" width="90" height="40" as="geometry" />
        </mxCell>
        <mxCell id="1sImL0ctUOMiwHgFj7wP-5" value="&lt;font style=&quot;font-size: 14px;&quot;&gt;&amp;nbsp; &amp;nbsp; Schedule&lt;/font&gt;" style="rounded=1;whiteSpace=wrap;html=1;align=left;" parent="1" vertex="1">
          <mxGeometry x="430" y="1025" width="200" height="60" as="geometry" />
        </mxCell>
        <mxCell id="1sImL0ctUOMiwHgFj7wP-6" value="Computility-Device schedule" style="rounded=1;whiteSpace=wrap;html=1;fillColor=#CCCCFF;" parent="1" vertex="1">
          <mxGeometry x="520" y="1035" width="100" height="40" as="geometry" />
        </mxCell>
        <mxCell id="1sImL0ctUOMiwHgFj7wP-7" value="etcd" style="shape=cylinder3;whiteSpace=wrap;html=1;boundedLbl=1;backgroundOutline=1;size=15;" parent="1" vertex="1">
          <mxGeometry x="280" y="937.5" width="100" height="55" as="geometry" />
        </mxCell>
        <mxCell id="1sImL0ctUOMiwHgFj7wP-8" value="&lt;font style=&quot;font-size: 18px;&quot;&gt;Master Node&lt;/font&gt;" style="text;html=1;strokeColor=none;fillColor=none;align=center;verticalAlign=middle;whiteSpace=wrap;rounded=0;" parent="1" vertex="1">
          <mxGeometry x="395" y="890" width="110" height="30" as="geometry" />
        </mxCell>
        <mxCell id="1sImL0ctUOMiwHgFj7wP-18" value="" style="endArrow=classic;html=1;rounded=0;exitX=0.75;exitY=0;exitDx=0;exitDy=0;entryX=0;entryY=0.875;entryDx=0;entryDy=0;entryPerimeter=0;" parent="1" source="1sImL0ctUOMiwHgFj7wP-4" target="1sImL0ctUOMiwHgFj7wP-3" edge="1">
          <mxGeometry width="50" height="50" relative="1" as="geometry">
            <mxPoint x="350" y="1020" as="sourcePoint" />
            <mxPoint x="410" y="970" as="targetPoint" />
          </mxGeometry>
        </mxCell>
        <mxCell id="1sImL0ctUOMiwHgFj7wP-19" value="" style="endArrow=classic;html=1;rounded=0;exitX=0.429;exitY=0.006;exitDx=0;exitDy=0;exitPerimeter=0;entryX=0.5;entryY=1;entryDx=0;entryDy=0;" parent="1" source="1sImL0ctUOMiwHgFj7wP-5" target="1sImL0ctUOMiwHgFj7wP-3" edge="1">
          <mxGeometry width="50" height="50" relative="1" as="geometry">
            <mxPoint x="429" y="1104" as="sourcePoint" />
            <mxPoint x="428" y="996" as="targetPoint" />
          </mxGeometry>
        </mxCell>
        <mxCell id="1sImL0ctUOMiwHgFj7wP-68" value="GPU/NPU" style="rounded=1;whiteSpace=wrap;html=1;" parent="1" vertex="1">
          <mxGeometry x="748" y="1460" width="660" height="30" as="geometry" />
        </mxCell>
        <mxCell id="1sImL0ctUOMiwHgFj7wP-69" value="system&lt;br&gt;CentOS 7.x，Ubuntu &amp;gt;= 22.04, OpenEuler &amp;gt;= 22.03" style="rounded=1;whiteSpace=wrap;html=1;" parent="1" vertex="1">
          <mxGeometry x="748" y="1510" width="660" height="60" as="geometry" />
        </mxCell>
        <mxCell id="1sImL0ctUOMiwHgFj7wP-96" style="edgeStyle=orthogonalEdgeStyle;rounded=0;orthogonalLoop=1;jettySize=auto;html=1;entryX=0.122;entryY=1.02;entryDx=0;entryDy=0;exitX=0.116;exitY=0.02;exitDx=0;exitDy=0;exitPerimeter=0;entryPerimeter=0;" parent="1" source="1sImL0ctUOMiwHgFj7wP-81" target="1sImL0ctUOMiwHgFj7wP-94" edge="1">
          <mxGeometry relative="1" as="geometry" />
        </mxCell>
        <mxCell id="1sImL0ctUOMiwHgFj7wP-217" style="edgeStyle=orthogonalEdgeStyle;rounded=0;orthogonalLoop=1;jettySize=auto;html=1;exitX=0.25;exitY=1;exitDx=0;exitDy=0;" parent="1" source="1sImL0ctUOMiwHgFj7wP-81" edge="1">
          <mxGeometry relative="1" as="geometry">
            <mxPoint x="778" y="1459" as="targetPoint" />
          </mxGeometry>
        </mxCell>
        <mxCell id="1sImL0ctUOMiwHgFj7wP-81" value="Computility-Device Manager Pulgin" style="rounded=1;whiteSpace=wrap;html=1;fillColor=#CCCCFF;" parent="1" vertex="1">
          <mxGeometry x="741" y="1203" width="147" height="51" as="geometry" />
        </mxCell>
        <mxCell id="1sImL0ctUOMiwHgFj7wP-83" value="&lt;div style=&quot;text-align: left;&quot;&gt;&lt;br&gt;&lt;/div&gt;" style="rounded=1;whiteSpace=wrap;html=1;" parent="1" vertex="1">
          <mxGeometry x="1198" y="1038" width="200" height="296" as="geometry" />
        </mxCell>
        <mxCell id="1sImL0ctUOMiwHgFj7wP-136" style="edgeStyle=orthogonalEdgeStyle;rounded=0;orthogonalLoop=1;jettySize=auto;html=1;entryX=0.75;entryY=1;entryDx=0;entryDy=0;" parent="1" source="1sImL0ctUOMiwHgFj7wP-92" target="1sImL0ctUOMiwHgFj7wP-81" edge="1">
          <mxGeometry relative="1" as="geometry" />
        </mxCell>
        <mxCell id="1sImL0ctUOMiwHgFj7wP-199" style="edgeStyle=orthogonalEdgeStyle;rounded=0;orthogonalLoop=1;jettySize=auto;html=1;" parent="1" source="1sImL0ctUOMiwHgFj7wP-92" target="1sImL0ctUOMiwHgFj7wP-118" edge="1">
          <mxGeometry relative="1" as="geometry">
            <Array as="points">
              <mxPoint x="1153" y="1360" />
              <mxPoint x="1300" y="1360" />
            </Array>
          </mxGeometry>
        </mxCell>
        <mxCell id="1sImL0ctUOMiwHgFj7wP-212" style="edgeStyle=orthogonalEdgeStyle;rounded=0;orthogonalLoop=1;jettySize=auto;html=1;" parent="1" source="1sImL0ctUOMiwHgFj7wP-92" target="1sImL0ctUOMiwHgFj7wP-207" edge="1">
          <mxGeometry relative="1" as="geometry">
            <Array as="points">
              <mxPoint x="1153" y="1360" />
              <mxPoint x="1033" y="1360" />
            </Array>
          </mxGeometry>
        </mxCell>
        <mxCell id="1sImL0ctUOMiwHgFj7wP-92" value="&lt;font style=&quot;border-color: var(--border-color);&quot;&gt;&lt;font&gt;VComputility-Device Manger&lt;/font&gt;&lt;br&gt;&lt;/font&gt;" style="rounded=1;whiteSpace=wrap;html=1;fillColor=#CCCCFF;fontColor=#006600;" parent="1" vertex="1">
          <mxGeometry x="908" y="1380" width="490" height="30" as="geometry" />
        </mxCell>
        <mxCell id="1sImL0ctUOMiwHgFj7wP-94" value="&lt;font style=&quot;font-size: 14px;&quot;&gt;kubelet&lt;/font&gt;" style="rounded=1;whiteSpace=wrap;html=1;fillColor=#FFFFFF;" parent="1" vertex="1">
          <mxGeometry x="741" y="1030" width="147" height="51" as="geometry" />
        </mxCell>
        <mxCell id="1sImL0ctUOMiwHgFj7wP-98" value="Registrer" style="text;html=1;strokeColor=none;fillColor=none;align=center;verticalAlign=middle;whiteSpace=wrap;rounded=0;horizontal=0;fontSize=17;fontStyle=0" parent="1" vertex="1">
          <mxGeometry x="710" y="1111" width="60" height="68" as="geometry" />
        </mxCell>
        <mxCell id="1sImL0ctUOMiwHgFj7wP-100" style="edgeStyle=orthogonalEdgeStyle;rounded=0;orthogonalLoop=1;jettySize=auto;html=1;entryX=0.75;entryY=1;entryDx=0;entryDy=0;exitX=0.75;exitY=0;exitDx=0;exitDy=0;" parent="1" source="1sImL0ctUOMiwHgFj7wP-81" target="1sImL0ctUOMiwHgFj7wP-94" edge="1">
          <mxGeometry relative="1" as="geometry">
            <mxPoint x="778" y="1200" as="sourcePoint" />
            <mxPoint x="779" y="1102" as="targetPoint" />
          </mxGeometry>
        </mxCell>
        <mxCell id="1sImL0ctUOMiwHgFj7wP-101" style="edgeStyle=orthogonalEdgeStyle;rounded=0;orthogonalLoop=1;jettySize=auto;html=1;exitX=0.592;exitY=0.98;exitDx=0;exitDy=0;exitPerimeter=0;" parent="1" source="1sImL0ctUOMiwHgFj7wP-94" edge="1">
          <mxGeometry relative="1" as="geometry">
            <mxPoint x="861" y="1189" as="sourcePoint" />
            <mxPoint x="828" y="1200" as="targetPoint" />
          </mxGeometry>
        </mxCell>
        <mxCell id="1sImL0ctUOMiwHgFj7wP-102" value="Allocate" style="text;html=1;strokeColor=none;fillColor=none;align=center;verticalAlign=middle;whiteSpace=wrap;rounded=0;horizontal=0;fontSize=16;fontStyle=0" parent="1" vertex="1">
          <mxGeometry x="785" y="1110" width="60" height="68" as="geometry" />
        </mxCell>
        <mxCell id="1sImL0ctUOMiwHgFj7wP-103" value="AllocResponse&lt;br style=&quot;font-size: 16px;&quot;&gt;" style="text;html=1;strokeColor=none;fillColor=none;align=center;verticalAlign=middle;whiteSpace=wrap;rounded=0;horizontal=0;fontSize=16;fontStyle=0" parent="1" vertex="1">
          <mxGeometry x="838" y="1090" width="60" height="110" as="geometry" />
        </mxCell>
        <mxCell id="1sImL0ctUOMiwHgFj7wP-108" value="Driver" style="rounded=1;whiteSpace=wrap;html=1;" parent="1" vertex="1">
          <mxGeometry x="860" y="1440" width="500" height="20" as="geometry" />
        </mxCell>
        <mxCell id="1sImL0ctUOMiwHgFj7wP-125" value="App" style="rounded=1;whiteSpace=wrap;html=1;" parent="1" vertex="1">
          <mxGeometry x="1225" y="1129" width="150" height="26" as="geometry" />
        </mxCell>
        <mxCell id="1sImL0ctUOMiwHgFj7wP-134" style="edgeStyle=orthogonalEdgeStyle;rounded=0;orthogonalLoop=1;jettySize=auto;html=1;exitX=0.626;exitY=0.98;exitDx=0;exitDy=0;entryX=0;entryY=0.5;entryDx=0;entryDy=0;exitPerimeter=0;" parent="1" source="1sImL0ctUOMiwHgFj7wP-81" target="1sImL0ctUOMiwHgFj7wP-92" edge="1">
          <mxGeometry relative="1" as="geometry">
            <mxPoint x="838" y="1090" as="sourcePoint" />
            <mxPoint x="838" y="1210" as="targetPoint" />
          </mxGeometry>
        </mxCell>
        <mxCell id="1sImL0ctUOMiwHgFj7wP-135" value="Request" style="text;html=1;strokeColor=none;fillColor=none;align=center;verticalAlign=middle;whiteSpace=wrap;rounded=0;horizontal=0;fontSize=16;fontStyle=0" parent="1" vertex="1">
          <mxGeometry x="790" y="1274" width="60" height="68" as="geometry" />
        </mxCell>
        <mxCell id="1sImL0ctUOMiwHgFj7wP-137" value="Response" style="text;html=1;strokeColor=none;fillColor=none;align=center;verticalAlign=middle;whiteSpace=wrap;rounded=0;horizontal=0;fontSize=16;fontStyle=0" parent="1" vertex="1">
          <mxGeometry x="838" y="1274" width="60" height="68" as="geometry" />
        </mxCell>
        <mxCell id="1sImL0ctUOMiwHgFj7wP-138" value="&lt;font style=&quot;font-size: 14px;&quot;&gt;Worker Node&amp;nbsp; label = navidia-enable&lt;/font&gt;" style="text;html=1;strokeColor=none;fillColor=none;align=center;verticalAlign=middle;whiteSpace=wrap;rounded=0;" parent="1" vertex="1">
          <mxGeometry x="898" y="970" width="300" height="30" as="geometry" />
        </mxCell>
        <mxCell id="1sImL0ctUOMiwHgFj7wP-147" value="Public API" style="rounded=1;whiteSpace=wrap;html=1;" parent="1" vertex="1">
          <mxGeometry x="1225" y="1176" width="150" height="20" as="geometry" />
        </mxCell>
        <mxCell id="1sImL0ctUOMiwHgFj7wP-148" value="User-mode Library" style="rounded=1;whiteSpace=wrap;html=1;" parent="1" vertex="1">
          <mxGeometry x="1225" y="1192" width="150" height="20" as="geometry" />
        </mxCell>
        <mxCell id="1sImL0ctUOMiwHgFj7wP-165" value="" style="group" parent="1" vertex="1" connectable="0">
          <mxGeometry x="1225" y="1238" width="150" height="90" as="geometry" />
        </mxCell>
        <mxCell id="1sImL0ctUOMiwHgFj7wP-118" value="&lt;font color=&quot;#00cc00&quot;&gt;&lt;br&gt;&lt;br&gt;&lt;br&gt;&lt;br&gt;VDevice&lt;br&gt;&lt;br&gt;&lt;br&gt;&lt;br&gt;&lt;br&gt;&lt;br&gt;&lt;br&gt;&lt;/font&gt;&lt;div style=&quot;text-align: left;&quot;&gt;&lt;br&gt;&lt;/div&gt;" style="rounded=1;whiteSpace=wrap;html=1;container=0;" parent="1sImL0ctUOMiwHgFj7wP-165" vertex="1">
          <mxGeometry width="150" height="90" as="geometry" />
        </mxCell>
        <mxCell id="1sImL0ctUOMiwHgFj7wP-152" value="HOOK" style="rounded=1;whiteSpace=wrap;html=1;container=0;" parent="1sImL0ctUOMiwHgFj7wP-165" vertex="1">
          <mxGeometry x="13" y="40" width="124" height="22.3" as="geometry" />
        </mxCell>
        <mxCell id="1sImL0ctUOMiwHgFj7wP-163" value="ALGorithm" style="rounded=1;whiteSpace=wrap;html=1;container=0;" parent="1sImL0ctUOMiwHgFj7wP-165" vertex="1">
          <mxGeometry x="13" y="62.31" width="124" height="17.69" as="geometry" />
        </mxCell>
        <mxCell id="zJI1jAjEfBXhcPS7CYOm-26" style="edgeStyle=orthogonalEdgeStyle;rounded=0;orthogonalLoop=1;jettySize=auto;html=1;entryX=0.5;entryY=0;entryDx=0;entryDy=0;dashed=1;" edge="1" parent="1" source="1sImL0ctUOMiwHgFj7wP-166" target="zJI1jAjEfBXhcPS7CYOm-5">
          <mxGeometry relative="1" as="geometry">
            <Array as="points">
              <mxPoint x="815" y="1940" />
            </Array>
          </mxGeometry>
        </mxCell>
        <mxCell id="1sImL0ctUOMiwHgFj7wP-166" value="GPU Scheduler Server" style="rounded=1;whiteSpace=wrap;html=1;fillColor=#b1ddf0;strokeColor=#10739e;" parent="1" vertex="1">
          <mxGeometry x="1030.5" y="1890" width="149.5" height="100" as="geometry" />
        </mxCell>
        <mxCell id="1sImL0ctUOMiwHgFj7wP-170" value="Public API" style="rounded=1;whiteSpace=wrap;html=1;" parent="1" vertex="1">
          <mxGeometry x="400" y="2028" width="150" height="20" as="geometry" />
        </mxCell>
        <mxCell id="1sImL0ctUOMiwHgFj7wP-171" value="User-mode Library" style="rounded=1;whiteSpace=wrap;html=1;" parent="1" vertex="1">
          <mxGeometry x="400" y="2050" width="150" height="20" as="geometry" />
        </mxCell>
        <mxCell id="1sImL0ctUOMiwHgFj7wP-174" value="" style="endArrow=classic;html=1;rounded=0;exitX=0.5;exitY=1;exitDx=0;exitDy=0;entryX=0.5;entryY=0;entryDx=0;entryDy=0;" parent="1" source="1sImL0ctUOMiwHgFj7wP-125" target="1sImL0ctUOMiwHgFj7wP-147" edge="1">
          <mxGeometry width="50" height="50" relative="1" as="geometry">
            <mxPoint x="1455" y="1148" as="sourcePoint" />
            <mxPoint x="1505" y="1098" as="targetPoint" />
          </mxGeometry>
        </mxCell>
        <mxCell id="1sImL0ctUOMiwHgFj7wP-184" value="" style="endArrow=classic;html=1;rounded=0;exitX=0.5;exitY=1;exitDx=0;exitDy=0;entryX=0.5;entryY=0;entryDx=0;entryDy=0;" parent="1" source="1sImL0ctUOMiwHgFj7wP-148" target="1sImL0ctUOMiwHgFj7wP-118" edge="1">
          <mxGeometry width="50" height="50" relative="1" as="geometry">
            <mxPoint x="1310" y="1165" as="sourcePoint" />
            <mxPoint x="1310" y="1186" as="targetPoint" />
          </mxGeometry>
        </mxCell>
        <mxCell id="1sImL0ctUOMiwHgFj7wP-202" value="runc/containerd/isula/&lt;br style=&quot;font-size: 14px;&quot;&gt;Docker容器" style="text;html=1;strokeColor=none;fillColor=none;align=center;verticalAlign=middle;whiteSpace=wrap;rounded=0;fontSize=14;" parent="1" vertex="1">
          <mxGeometry x="948" y="1030" width="170" height="70" as="geometry" />
        </mxCell>
        <mxCell id="1sImL0ctUOMiwHgFj7wP-203" value="App" style="rounded=1;whiteSpace=wrap;html=1;" parent="1" vertex="1">
          <mxGeometry x="958" y="1129" width="150" height="26" as="geometry" />
        </mxCell>
        <mxCell id="1sImL0ctUOMiwHgFj7wP-204" value="Public API" style="rounded=1;whiteSpace=wrap;html=1;" parent="1" vertex="1">
          <mxGeometry x="958" y="1176" width="150" height="20" as="geometry" />
        </mxCell>
        <mxCell id="1sImL0ctUOMiwHgFj7wP-205" value="User-mode Library" style="rounded=1;whiteSpace=wrap;html=1;" parent="1" vertex="1">
          <mxGeometry x="958" y="1192" width="150" height="20" as="geometry" />
        </mxCell>
        <mxCell id="1sImL0ctUOMiwHgFj7wP-206" value="" style="group" parent="1" vertex="1" connectable="0">
          <mxGeometry x="958" y="1238" width="150" height="90" as="geometry" />
        </mxCell>
        <mxCell id="1sImL0ctUOMiwHgFj7wP-207" value="&lt;font color=&quot;#00cc00&quot;&gt;&lt;br&gt;&lt;br&gt;&lt;br&gt;&lt;br&gt;VDevice&lt;br&gt;&lt;br&gt;&lt;br&gt;&lt;br&gt;&lt;br&gt;&lt;br&gt;&lt;br&gt;&lt;/font&gt;&lt;div style=&quot;text-align: left;&quot;&gt;&lt;br&gt;&lt;/div&gt;" style="rounded=1;whiteSpace=wrap;html=1;container=0;" parent="1sImL0ctUOMiwHgFj7wP-206" vertex="1">
          <mxGeometry width="150" height="90" as="geometry" />
        </mxCell>
        <mxCell id="1sImL0ctUOMiwHgFj7wP-208" value="HOOK" style="rounded=1;whiteSpace=wrap;html=1;container=0;" parent="1sImL0ctUOMiwHgFj7wP-206" vertex="1">
          <mxGeometry x="13" y="40" width="124" height="22.3" as="geometry" />
        </mxCell>
        <mxCell id="1sImL0ctUOMiwHgFj7wP-209" value="ALGorithm" style="rounded=1;whiteSpace=wrap;html=1;container=0;" parent="1sImL0ctUOMiwHgFj7wP-206" vertex="1">
          <mxGeometry x="13" y="62.31" width="124" height="17.69" as="geometry" />
        </mxCell>
        <mxCell id="1sImL0ctUOMiwHgFj7wP-210" value="" style="endArrow=classic;html=1;rounded=0;exitX=0.5;exitY=1;exitDx=0;exitDy=0;entryX=0.5;entryY=0;entryDx=0;entryDy=0;" parent="1" source="1sImL0ctUOMiwHgFj7wP-203" target="1sImL0ctUOMiwHgFj7wP-204" edge="1">
          <mxGeometry width="50" height="50" relative="1" as="geometry">
            <mxPoint x="1188" y="1148" as="sourcePoint" />
            <mxPoint x="1238" y="1098" as="targetPoint" />
          </mxGeometry>
        </mxCell>
        <mxCell id="1sImL0ctUOMiwHgFj7wP-211" value="" style="endArrow=classic;html=1;rounded=0;exitX=0.5;exitY=1;exitDx=0;exitDy=0;entryX=0.5;entryY=0;entryDx=0;entryDy=0;" parent="1" source="1sImL0ctUOMiwHgFj7wP-205" target="1sImL0ctUOMiwHgFj7wP-207" edge="1">
          <mxGeometry width="50" height="50" relative="1" as="geometry">
            <mxPoint x="1043" y="1165" as="sourcePoint" />
            <mxPoint x="1043" y="1186" as="targetPoint" />
          </mxGeometry>
        </mxCell>
        <mxCell id="1sImL0ctUOMiwHgFj7wP-215" value="create/update/monitor" style="text;html=1;strokeColor=none;fillColor=none;align=center;verticalAlign=middle;whiteSpace=wrap;rounded=0;fontSize=14;" parent="1" vertex="1">
          <mxGeometry x="1078" y="1330" width="160" height="30" as="geometry" />
        </mxCell>
        <mxCell id="1sImL0ctUOMiwHgFj7wP-216" value="Windows虚拟机&lt;br&gt;/KVM虚拟机" style="text;html=1;strokeColor=none;fillColor=none;align=center;verticalAlign=middle;whiteSpace=wrap;rounded=0;fontSize=14;" parent="1" vertex="1">
          <mxGeometry x="1213" y="1030" width="170" height="70" as="geometry" />
        </mxCell>
        <mxCell id="1sImL0ctUOMiwHgFj7wP-268" style="edgeStyle=orthogonalEdgeStyle;rounded=0;orthogonalLoop=1;jettySize=auto;html=1;exitX=0.25;exitY=1;exitDx=0;exitDy=0;dashed=1;" parent="1" source="1sImL0ctUOMiwHgFj7wP-213" edge="1">
          <mxGeometry relative="1" as="geometry">
            <mxPoint x="983" y="1440" as="targetPoint" />
          </mxGeometry>
        </mxCell>
        <mxCell id="1sImL0ctUOMiwHgFj7wP-269" style="edgeStyle=orthogonalEdgeStyle;rounded=0;orthogonalLoop=1;jettySize=auto;html=1;dashed=1;entryX=0.938;entryY=-0.1;entryDx=0;entryDy=0;entryPerimeter=0;" parent="1" target="1sImL0ctUOMiwHgFj7wP-108" edge="1">
          <mxGeometry relative="1" as="geometry">
            <mxPoint x="1329" y="1330" as="sourcePoint" />
            <mxPoint x="993" y="1450" as="targetPoint" />
          </mxGeometry>
        </mxCell>
        <mxCell id="zJI1jAjEfBXhcPS7CYOm-9" style="edgeStyle=orthogonalEdgeStyle;rounded=0;orthogonalLoop=1;jettySize=auto;html=1;entryX=0.5;entryY=0;entryDx=0;entryDy=0;" edge="1" parent="1" source="zJI1jAjEfBXhcPS7CYOm-1" target="zJI1jAjEfBXhcPS7CYOm-2">
          <mxGeometry relative="1" as="geometry" />
        </mxCell>
        <mxCell id="zJI1jAjEfBXhcPS7CYOm-1" value="PreEnqueue" style="rounded=0;whiteSpace=wrap;html=1;" vertex="1" parent="1">
          <mxGeometry x="763.5" y="1800" width="102" height="30" as="geometry" />
        </mxCell>
        <mxCell id="zJI1jAjEfBXhcPS7CYOm-10" style="edgeStyle=orthogonalEdgeStyle;rounded=0;orthogonalLoop=1;jettySize=auto;html=1;entryX=0.5;entryY=0;entryDx=0;entryDy=0;" edge="1" parent="1" source="zJI1jAjEfBXhcPS7CYOm-2" target="zJI1jAjEfBXhcPS7CYOm-4">
          <mxGeometry relative="1" as="geometry" />
        </mxCell>
        <mxCell id="zJI1jAjEfBXhcPS7CYOm-2" value="QueueSort  " style="rounded=0;whiteSpace=wrap;html=1;" vertex="1" parent="1">
          <mxGeometry x="763.5" y="1850" width="102" height="30" as="geometry" />
        </mxCell>
        <mxCell id="zJI1jAjEfBXhcPS7CYOm-21" style="edgeStyle=orthogonalEdgeStyle;rounded=0;orthogonalLoop=1;jettySize=auto;html=1;entryX=0;entryY=0.25;entryDx=0;entryDy=0;" edge="1" parent="1" source="zJI1jAjEfBXhcPS7CYOm-4" target="1sImL0ctUOMiwHgFj7wP-166">
          <mxGeometry relative="1" as="geometry" />
        </mxCell>
        <mxCell id="zJI1jAjEfBXhcPS7CYOm-25" style="edgeStyle=orthogonalEdgeStyle;rounded=0;orthogonalLoop=1;jettySize=auto;html=1;entryX=0.5;entryY=0;entryDx=0;entryDy=0;dashed=1;" edge="1" parent="1" source="zJI1jAjEfBXhcPS7CYOm-4" target="zJI1jAjEfBXhcPS7CYOm-5">
          <mxGeometry relative="1" as="geometry" />
        </mxCell>
        <mxCell id="zJI1jAjEfBXhcPS7CYOm-4" value="Filter" style="rounded=0;whiteSpace=wrap;html=1;" vertex="1" parent="1">
          <mxGeometry x="763.5" y="1900" width="102" height="30" as="geometry" />
        </mxCell>
        <mxCell id="zJI1jAjEfBXhcPS7CYOm-12" style="edgeStyle=orthogonalEdgeStyle;rounded=0;orthogonalLoop=1;jettySize=auto;html=1;entryX=0.5;entryY=0;entryDx=0;entryDy=0;" edge="1" parent="1" source="zJI1jAjEfBXhcPS7CYOm-5" target="zJI1jAjEfBXhcPS7CYOm-6">
          <mxGeometry relative="1" as="geometry" />
        </mxCell>
        <mxCell id="zJI1jAjEfBXhcPS7CYOm-5" value="Score" style="rounded=0;whiteSpace=wrap;html=1;" vertex="1" parent="1">
          <mxGeometry x="764" y="1970" width="102" height="30" as="geometry" />
        </mxCell>
        <mxCell id="zJI1jAjEfBXhcPS7CYOm-13" style="edgeStyle=orthogonalEdgeStyle;rounded=0;orthogonalLoop=1;jettySize=auto;html=1;" edge="1" parent="1" source="zJI1jAjEfBXhcPS7CYOm-6" target="zJI1jAjEfBXhcPS7CYOm-8">
          <mxGeometry relative="1" as="geometry" />
        </mxCell>
        <mxCell id="zJI1jAjEfBXhcPS7CYOm-6" value="Reserve" style="rounded=0;whiteSpace=wrap;html=1;" vertex="1" parent="1">
          <mxGeometry x="764" y="2018" width="102" height="30" as="geometry" />
        </mxCell>
        <mxCell id="zJI1jAjEfBXhcPS7CYOm-7" value="Bind" style="rounded=0;whiteSpace=wrap;html=1;" vertex="1" parent="1">
          <mxGeometry x="764" y="2120" width="102" height="30" as="geometry" />
        </mxCell>
        <mxCell id="zJI1jAjEfBXhcPS7CYOm-17" style="edgeStyle=orthogonalEdgeStyle;rounded=0;orthogonalLoop=1;jettySize=auto;html=1;entryX=0.5;entryY=0;entryDx=0;entryDy=0;" edge="1" parent="1" source="zJI1jAjEfBXhcPS7CYOm-8" target="zJI1jAjEfBXhcPS7CYOm-7">
          <mxGeometry relative="1" as="geometry" />
        </mxCell>
        <mxCell id="zJI1jAjEfBXhcPS7CYOm-8" value="Permit" style="rounded=0;whiteSpace=wrap;html=1;" vertex="1" parent="1">
          <mxGeometry x="764" y="2065" width="102" height="30" as="geometry" />
        </mxCell>
        <mxCell id="zJI1jAjEfBXhcPS7CYOm-22" value="&lt;font style=&quot;font-size: 14px;&quot;&gt;POST: /filter&lt;br&gt;request: pod、nodes&lt;/font&gt;" style="text;html=1;strokeColor=none;fillColor=none;align=center;verticalAlign=middle;whiteSpace=wrap;rounded=0;" vertex="1" parent="1">
          <mxGeometry x="870" y="1860" width="149" height="50" as="geometry" />
        </mxCell>
        <mxCell id="zJI1jAjEfBXhcPS7CYOm-24" value="&lt;span style=&quot;font-size: 14px;&quot;&gt;Response: &lt;br&gt;nodes、failedNodes&lt;/span&gt;" style="text;html=1;strokeColor=none;fillColor=none;align=center;verticalAlign=middle;whiteSpace=wrap;rounded=0;" vertex="1" parent="1">
          <mxGeometry x="870" y="1940" width="149" height="40" as="geometry" />
        </mxCell>
      </root>
    </mxGraphModel>
  </diagram>
</mxfile>
